<svg xmlns="http://www.w3.org/2000/svg" viewBox="0 0 24 24" id="TrackLocation"><path fill="currentColor" d="M8.5 10a3.5 3.5 0 1 1 7 0 3.5 3.5 0 0 1-7 0M12 8a2 2 0 1 0 0 4 2 2 0 0 0 0-4"/><path fill="currentColor" d="M19.86 11.5a8 8 0 0 1-1.1 2.79C16.5 18.59 12 22.5 12 22.5s-4.5-3.9-6.75-8.2A8 8 0 1 1 20 10.05v.06a8 8 0 0 1-.14 1.38m-1.36-1.44V10a6.5 6.5 0 1 0-11.99 3.49l.04.05.03.06a27 27 0 0 0 3.99 5.39A40 40 0 0 0 12 20.45 40 40 0 0 0 13.44 19a27 27 0 0 0 3.99-5.4l.03-.05.03-.06a6.5 6.5 0 0 0 1.01-3.38z"/></svg>